<?xml version="1.0" standalone="no"?>
<!DOCTYPE svg PUBLIC "-//W3C//DTD SVG 20010904//EN"
 "http://www.w3.org/TR/2001/REC-SVG-20010904/DTD/svg10.dtd">
<svg version="1.0" xmlns="http://www.w3.org/2000/svg"
 width="200.000000pt" height="200.000000pt" viewBox="0 0 200.000000 200.000000"
 preserveAspectRatio="xMidYMid meet">

<g transform="translate(0.000000,200.000000) scale(0.100000,-0.100000)"
fill="#000000" stroke="none">
<path d="M807 1965 c-395 -75 -688 -362 -769 -754 -26 -124 -21 -317 12 -430
92 -324 339 -574 656 -666 452 -131 931 90 1130 521 64 138 78 208 78 394 0
150 -3 173 -27 253 -103 335 -357 582 -687 667 -110 29 -285 35 -393 15z m316
-60 c276 -48 519 -230 646 -482 81 -162 112 -389 77 -564 -65 -317 -288 -573
-591 -677 -185 -63 -424 -58 -604 13 -264 103 -454 309 -538 582 -24 80 -27
103 -27 248 -1 149 1 166 28 250 52 165 123 281 243 396 205 198 484 283 766
234z"/>
<path d="M540 1249 l-215 -209 215 -210 215 -210 50 1 50 0 -195 189 -195 189
495 0 495 1 -50 -47 c-27 -26 -117 -112 -198 -190 l-149 -143 50 0 49 0 214
205 c118 112 214 209 214 214 0 6 -97 103 -215 216 l-214 205 -51 0 -50 0 60
-57 c33 -32 122 -117 197 -190 l137 -133 -492 0 -492 0 195 190 195 189 -50 0
-50 0 -215 -210z"/>
</g>
</svg>
